G04*
G04 #@! TF.GenerationSoftware,Altium Limited,Altium Designer,18.1.2 (67)*
G04*
G04 Layer_Color=255*
%FSLAX25Y25*%
%MOIN*%
G70*
G01*
G75*
%ADD26C,0.03937*%
%ADD27R,0.03150X0.05118*%
%ADD28R,0.03937X0.03543*%
%ADD29R,0.05118X0.05906*%
%ADD30R,0.03543X0.03937*%
%ADD31R,0.07480X0.05906*%
%ADD32R,0.05315X0.01575*%
G04:AMPARAMS|DCode=33|XSize=137.8mil|YSize=70.87mil|CornerRadius=17.72mil|HoleSize=0mil|Usage=FLASHONLY|Rotation=90.000|XOffset=0mil|YOffset=0mil|HoleType=Round|Shape=RoundedRectangle|*
%AMROUNDEDRECTD33*
21,1,0.13780,0.03543,0,0,90.0*
21,1,0.10236,0.07087,0,0,90.0*
1,1,0.03543,0.01772,0.05118*
1,1,0.03543,0.01772,-0.05118*
1,1,0.03543,-0.01772,-0.05118*
1,1,0.03543,-0.01772,0.05118*
%
%ADD33ROUNDEDRECTD33*%
%ADD34R,0.07087X0.13780*%
%ADD35R,0.06000X0.05000*%
%ADD36R,0.05906X0.12598*%
%ADD37R,0.12598X0.05906*%
%ADD38R,0.05906X0.05118*%
%ADD39R,0.07874X0.07874*%
%ADD40R,0.07087X0.09055*%
%ADD41R,0.03937X0.03937*%
%ADD42R,0.21260X0.11417*%
%ADD43R,0.08661X0.06299*%
%ADD44R,0.03937X0.03937*%
%ADD45R,0.03150X0.03543*%
%ADD46O,0.08268X0.02165*%
G04:AMPARAMS|DCode=47|XSize=47mil|YSize=12mil|CornerRadius=0mil|HoleSize=0mil|Usage=FLASHONLY|Rotation=225.000|XOffset=0mil|YOffset=0mil|HoleType=Round|Shape=Rectangle|*
%AMROTATEDRECTD47*
4,1,4,0.01237,0.02086,0.02086,0.01237,-0.01237,-0.02086,-0.02086,-0.01237,0.01237,0.02086,0.0*
%
%ADD47ROTATEDRECTD47*%

G04:AMPARAMS|DCode=48|XSize=47mil|YSize=12mil|CornerRadius=0mil|HoleSize=0mil|Usage=FLASHONLY|Rotation=135.000|XOffset=0mil|YOffset=0mil|HoleType=Round|Shape=Rectangle|*
%AMROTATEDRECTD48*
4,1,4,0.02086,-0.01237,0.01237,-0.02086,-0.02086,0.01237,-0.01237,0.02086,0.02086,-0.01237,0.0*
%
%ADD48ROTATEDRECTD48*%

%ADD49R,0.01000X0.03819*%
%ADD50R,0.42520X0.40984*%
%ADD51R,0.04213X0.08504*%
%ADD52R,0.02362X0.04331*%
%ADD53R,0.08000X0.04000*%
%ADD54R,0.09000X0.12000*%
%ADD55R,0.07874X0.03347*%
%ADD56R,0.03347X0.07874*%
%ADD57R,0.03937X0.07087*%
%ADD107C,0.05906*%
%ADD108R,0.05906X0.05906*%
%ADD109R,0.07480X0.07087*%
%ADD110C,0.05709*%
%ADD111C,0.04331*%
%ADD112R,0.07874X0.07874*%
%ADD113C,0.21654*%
%ADD114C,0.11811*%
%ADD115C,0.06299*%
%ADD116R,0.06299X0.06299*%
%ADD117C,0.04724*%
%ADD118R,0.04724X0.04724*%
%ADD119R,0.05906X0.05906*%
%ADD120O,0.15748X0.09843*%
D26*
X12500Y174300D02*
D03*
X432500Y165900D02*
D03*
X456900Y34800D02*
D03*
D27*
X458046Y143500D02*
D03*
Y174209D02*
D03*
Y48500D02*
D03*
Y79209D02*
D03*
Y96500D02*
D03*
Y127209D02*
D03*
D28*
X440000Y68201D02*
D03*
Y74500D02*
D03*
Y47750D02*
D03*
Y54050D02*
D03*
X164800Y102901D02*
D03*
Y109200D02*
D03*
X133500Y98350D02*
D03*
Y104650D02*
D03*
X356100Y46250D02*
D03*
Y52550D02*
D03*
X174800Y137150D02*
D03*
X174800Y143450D02*
D03*
X175000Y181150D02*
D03*
Y174850D02*
D03*
X196600Y123750D02*
D03*
Y117450D02*
D03*
X271200Y118450D02*
D03*
Y124750D02*
D03*
X198000Y181150D02*
D03*
Y174850D02*
D03*
X188000Y181150D02*
D03*
X188000Y174850D02*
D03*
X199900Y61550D02*
D03*
Y55250D02*
D03*
Y44450D02*
D03*
Y38150D02*
D03*
X357500Y176850D02*
D03*
Y183150D02*
D03*
X152500Y227150D02*
D03*
Y220850D02*
D03*
X330000Y176350D02*
D03*
Y182650D02*
D03*
X146500Y237350D02*
D03*
Y243650D02*
D03*
X100500Y92701D02*
D03*
Y99000D02*
D03*
X109800Y139150D02*
D03*
Y132850D02*
D03*
X174800Y162300D02*
D03*
Y156000D02*
D03*
X294800Y166350D02*
D03*
Y160050D02*
D03*
X286500Y166350D02*
D03*
Y160050D02*
D03*
X343500Y176850D02*
D03*
Y183150D02*
D03*
X350500D02*
D03*
Y176850D02*
D03*
X463500Y195350D02*
D03*
Y201650D02*
D03*
X131500Y226650D02*
D03*
Y220350D02*
D03*
Y237350D02*
D03*
Y243650D02*
D03*
X139100D02*
D03*
Y237350D02*
D03*
X43500Y233850D02*
D03*
Y240150D02*
D03*
X98500Y61650D02*
D03*
Y55350D02*
D03*
Y46650D02*
D03*
Y40350D02*
D03*
D29*
X112500Y105000D02*
D03*
Y91000D02*
D03*
D30*
X50150Y82500D02*
D03*
X43850D02*
D03*
X82850Y82000D02*
D03*
X89150D02*
D03*
X39350Y127500D02*
D03*
X45650D02*
D03*
Y134000D02*
D03*
X39350D02*
D03*
X88850Y147500D02*
D03*
X95150D02*
D03*
X195450Y144600D02*
D03*
X189150D02*
D03*
X226850Y84900D02*
D03*
X233150D02*
D03*
X237150Y158800D02*
D03*
X230850D02*
D03*
X213350Y163700D02*
D03*
X219650D02*
D03*
X148150Y212500D02*
D03*
X141850D02*
D03*
X104850Y162500D02*
D03*
X98550D02*
D03*
X216350Y25600D02*
D03*
X210050D02*
D03*
X232050Y25500D02*
D03*
X225750D02*
D03*
X30650Y101500D02*
D03*
X24350D02*
D03*
X30650Y107000D02*
D03*
X24350D02*
D03*
X30650Y112500D02*
D03*
X24350D02*
D03*
X95150Y132500D02*
D03*
X88850D02*
D03*
X95150Y140000D02*
D03*
X88850D02*
D03*
X296095Y53200D02*
D03*
X289796D02*
D03*
X272296D02*
D03*
X278595D02*
D03*
X338250Y12400D02*
D03*
X344550D02*
D03*
X195450Y138600D02*
D03*
X189150D02*
D03*
Y150600D02*
D03*
X195450D02*
D03*
D31*
X5500Y145126D02*
D03*
Y153000D02*
D03*
Y103126D02*
D03*
Y111000D02*
D03*
D32*
X16130Y154181D02*
D03*
Y151622D02*
D03*
Y149063D02*
D03*
Y146504D02*
D03*
Y143945D02*
D03*
Y112181D02*
D03*
Y109622D02*
D03*
Y107063D02*
D03*
Y104504D02*
D03*
Y101945D02*
D03*
D33*
X299500Y243248D02*
D03*
X439000Y222248D02*
D03*
D34*
X299500Y211752D02*
D03*
X439000Y190752D02*
D03*
D35*
X68000Y158500D02*
D03*
X77000D02*
D03*
X47900Y167100D02*
D03*
X38900D02*
D03*
D36*
X107000Y243311D02*
D03*
Y219689D02*
D03*
X204200Y219989D02*
D03*
Y243611D02*
D03*
D37*
X61189Y182000D02*
D03*
X84811D02*
D03*
D38*
X256800Y168000D02*
D03*
X270800D02*
D03*
X256850Y160500D02*
D03*
X270850D02*
D03*
D39*
X176174Y210100D02*
D03*
X160426D02*
D03*
D40*
X387890Y188500D02*
D03*
X404110D02*
D03*
X245110Y186000D02*
D03*
X228890D02*
D03*
X273110D02*
D03*
X256890D02*
D03*
D41*
X289599Y61700D02*
D03*
X296292D02*
D03*
X278792Y61700D02*
D03*
X272099D02*
D03*
D42*
X395500Y205512D02*
D03*
Y244488D02*
D03*
D43*
X172200Y245698D02*
D03*
Y220502D02*
D03*
D44*
X33500Y233654D02*
D03*
Y240347D02*
D03*
X463500Y217847D02*
D03*
Y211154D02*
D03*
D45*
X91500Y125437D02*
D03*
X95358Y117563D02*
D03*
X87642D02*
D03*
X107500Y125437D02*
D03*
X111358Y117563D02*
D03*
X103642D02*
D03*
D46*
X77638Y112500D02*
D03*
Y117500D02*
D03*
Y122500D02*
D03*
Y127500D02*
D03*
Y132500D02*
D03*
Y137500D02*
D03*
Y142500D02*
D03*
Y147500D02*
D03*
X55000Y112500D02*
D03*
Y117500D02*
D03*
Y122500D02*
D03*
Y127500D02*
D03*
Y132500D02*
D03*
Y137500D02*
D03*
Y142500D02*
D03*
Y147500D02*
D03*
D47*
X239568Y148447D02*
D03*
X240960Y147055D02*
D03*
X242352Y145663D02*
D03*
X243744Y144271D02*
D03*
X245136Y142879D02*
D03*
X246527Y141487D02*
D03*
X247919Y140095D02*
D03*
X249311Y138703D02*
D03*
X250703Y137311D02*
D03*
X252095Y135919D02*
D03*
X253487Y134527D02*
D03*
X254879Y133136D02*
D03*
X256271Y131744D02*
D03*
X257663Y130352D02*
D03*
X259055Y128960D02*
D03*
X260447Y127568D02*
D03*
X228432Y95553D02*
D03*
X227040Y96945D02*
D03*
X225648Y98337D02*
D03*
X224256Y99729D02*
D03*
X222864Y101121D02*
D03*
X221473Y102513D02*
D03*
X220081Y103905D02*
D03*
X218689Y105297D02*
D03*
X217297Y106689D02*
D03*
X215905Y108081D02*
D03*
X214513Y109473D02*
D03*
X213121Y110864D02*
D03*
X211729Y112256D02*
D03*
X210337Y113648D02*
D03*
X208945Y115040D02*
D03*
X207553Y116432D02*
D03*
D48*
X260447Y116432D02*
D03*
X259055Y115040D02*
D03*
X257663Y113648D02*
D03*
X256271Y112256D02*
D03*
X254879Y110864D02*
D03*
X253487Y109473D02*
D03*
X252095Y108081D02*
D03*
X250703Y106689D02*
D03*
X249311Y105297D02*
D03*
X247919Y103905D02*
D03*
X246527Y102513D02*
D03*
X245136Y101121D02*
D03*
X243744Y99729D02*
D03*
X242352Y98337D02*
D03*
X240960Y96945D02*
D03*
X239568Y95553D02*
D03*
X207553Y127568D02*
D03*
X208945Y128960D02*
D03*
X210337Y130352D02*
D03*
X211729Y131744D02*
D03*
X213121Y133136D02*
D03*
X214513Y134527D02*
D03*
X215905Y135919D02*
D03*
X217297Y137311D02*
D03*
X218689Y138703D02*
D03*
X220081Y140095D02*
D03*
X221473Y141487D02*
D03*
X222864Y142879D02*
D03*
X224256Y144271D02*
D03*
X225648Y145663D02*
D03*
X227040Y147055D02*
D03*
X228432Y148447D02*
D03*
D49*
X206925Y31500D02*
D03*
X209484D02*
D03*
X212043D02*
D03*
X214602D02*
D03*
X217161D02*
D03*
X219720D02*
D03*
X222280D02*
D03*
X224839D02*
D03*
X227398D02*
D03*
X229957D02*
D03*
X232516D02*
D03*
X235075D02*
D03*
X206925Y61500D02*
D03*
X209484D02*
D03*
X212043D02*
D03*
X214602D02*
D03*
X217161D02*
D03*
X219720D02*
D03*
X222280D02*
D03*
X224839D02*
D03*
X227398D02*
D03*
X229957D02*
D03*
X232516D02*
D03*
X235075D02*
D03*
D50*
X343500Y229000D02*
D03*
D51*
X356886Y196224D02*
D03*
X350193D02*
D03*
X343500D02*
D03*
X336807D02*
D03*
X330114D02*
D03*
D52*
X145740Y220276D02*
D03*
X142000D02*
D03*
X138260D02*
D03*
Y229724D02*
D03*
X142000D02*
D03*
X145740D02*
D03*
D53*
X123500Y174200D02*
D03*
Y192800D02*
D03*
Y183500D02*
D03*
D54*
X98500D02*
D03*
D55*
X43724Y97000D02*
D03*
X89000D02*
D03*
D56*
X161000Y182000D02*
D03*
X161000Y136724D02*
D03*
D57*
X188000Y167000D02*
D03*
X197843D02*
D03*
D107*
X25500Y46000D02*
D03*
Y56000D02*
D03*
Y66000D02*
D03*
X169000Y32500D02*
D03*
X119000D02*
D03*
X129000D02*
D03*
X139000D02*
D03*
X149000D02*
D03*
X159000D02*
D03*
X144700Y113100D02*
D03*
X154700D02*
D03*
X144700Y103100D02*
D03*
X154700D02*
D03*
X144700Y93100D02*
D03*
X316500Y32500D02*
D03*
X266500D02*
D03*
X276500D02*
D03*
X286500D02*
D03*
X296500D02*
D03*
X306500D02*
D03*
X229000Y11500D02*
D03*
X239000D02*
D03*
X219000D02*
D03*
X209000D02*
D03*
X199000D02*
D03*
X189000D02*
D03*
X296500Y101200D02*
D03*
X286500D02*
D03*
X296500Y111200D02*
D03*
X319200Y65000D02*
D03*
Y75000D02*
D03*
Y85000D02*
D03*
Y95000D02*
D03*
Y105000D02*
D03*
Y115000D02*
D03*
Y125000D02*
D03*
Y135000D02*
D03*
Y145000D02*
D03*
Y155000D02*
D03*
Y165000D02*
D03*
Y175000D02*
D03*
X86500Y58000D02*
D03*
Y48000D02*
D03*
X76500Y58000D02*
D03*
Y48000D02*
D03*
X66500Y58000D02*
D03*
Y48000D02*
D03*
X56500Y58000D02*
D03*
X367500Y131000D02*
D03*
X357500D02*
D03*
X347500D02*
D03*
X248000Y37000D02*
D03*
Y47000D02*
D03*
X233700Y229600D02*
D03*
X243700D02*
D03*
X233700Y219600D02*
D03*
X243700D02*
D03*
X233700Y209600D02*
D03*
X260000Y229600D02*
D03*
X270000D02*
D03*
X260000Y219600D02*
D03*
X270000D02*
D03*
X260000Y209600D02*
D03*
X422000Y148500D02*
D03*
X412000D02*
D03*
X402000D02*
D03*
X392000D02*
D03*
X382000D02*
D03*
X372000D02*
D03*
D108*
X25500Y76000D02*
D03*
X154700Y93100D02*
D03*
X286500Y111200D02*
D03*
X319200Y55000D02*
D03*
X248000Y57000D02*
D03*
X243700Y209600D02*
D03*
X270000D02*
D03*
D109*
X5500Y136465D02*
D03*
Y161662D02*
D03*
Y94464D02*
D03*
Y119661D02*
D03*
D110*
X16130Y158906D02*
D03*
Y139220D02*
D03*
X234000Y141000D02*
D03*
X16130Y116906D02*
D03*
Y97220D02*
D03*
D111*
X234000Y111472D02*
D03*
D112*
X39500Y213000D02*
D03*
Y193000D02*
D03*
D113*
X11811Y11811D02*
D03*
X456693Y240158D02*
D03*
X11811D02*
D03*
X456693Y11811D02*
D03*
D114*
X353012Y71843D02*
D03*
X411988D02*
D03*
D115*
X347500Y117000D02*
D03*
X357500D02*
D03*
X367500D02*
D03*
X377500D02*
D03*
X387500D02*
D03*
X397500D02*
D03*
X407500D02*
D03*
D116*
X417500D02*
D03*
D117*
X344800Y22400D02*
D03*
X334800D02*
D03*
X344800Y32400D02*
D03*
X334800D02*
D03*
X344800Y42400D02*
D03*
X334800D02*
D03*
Y52400D02*
D03*
X39500Y20000D02*
D03*
Y10000D02*
D03*
X61500Y20000D02*
D03*
Y10000D02*
D03*
X83500Y20000D02*
D03*
Y10000D02*
D03*
D118*
X344800Y52400D02*
D03*
X39500Y30000D02*
D03*
X61500D02*
D03*
X83500D02*
D03*
D119*
X249000Y11500D02*
D03*
X56500Y48000D02*
D03*
X377500Y131000D02*
D03*
D120*
X71500Y243004D02*
D03*
Y205996D02*
D03*
Y224500D02*
D03*
M02*
