M48
;Layer_Color=9474304
;FILE_FORMAT=2:5
INCH,TZ
;TYPE=PLATED
T1F00S00C0.01200
T2F00S00C0.01968
T3F00S00C0.02000
T5F00S00C0.02756
T6F00S00C0.02800
T7F00S00C0.03346
T8F00S00C0.03543
T9F00S00C0.04016
T10F00S00C0.04331
T12F00S00C0.05709
T13F00S00C0.05906
T14F00S00C0.11811
T15F00S00C0.12205
%
T01
X449300Y96500
X435200Y68200
X339600Y37300
X302000Y68200
X298000Y71900
X294000Y75900
X290000Y80000
X308000Y99500
X271500Y92600
X274000Y90000
X221700Y93900
X211800Y90100
X209300Y92300
X194800Y91300
X192600Y93100
X190300Y91300
X188000Y93100
X185800Y91200
X188000Y67400
X192500
X190200Y65100
X185800
X194800Y65000
X209400Y65500
X205500Y71800
X220000Y68000
X229957Y65343
X143000Y78100
X96000Y102400
X6000Y74000
Y66100
Y55800
Y46000
X35100Y107500
X34800Y112600
X45700Y116800
X49000Y127400
X40200Y141000
X38000Y142800
X63600Y142400
X63300Y137700
X57400Y155400
X55200Y157200
X113850Y139150
X184800Y138600
X198000Y128000
X216300Y128200
X214000Y125400
X220100Y126100
X222300Y124000
X223000Y130000
X223700Y118500
Y114100
X221484Y116300
Y111700
X233500Y116100
X235300Y118300
X237600Y121100
X242300Y121400
X244300Y130900
X246500Y133400
X236500Y133416
Y136216
X239600Y140400
X245500Y151000
X267200Y149500
X273600
X270900Y154900
X263000Y160000
Y168000
X282400Y187800
X280500Y189900
X279000Y133200
X276000
X282000
X271700Y130700
X267800Y128600
X271200Y113700
X253800Y118900
X255800Y121100
X220500Y156000
X223300Y160300
X209700Y149400
X207200Y147900
X204900Y149600
X202400Y148100
X199900Y152100
X194700Y109600
X160600Y108800
X285000Y133200
X294700Y154300
X309700Y154900
X328000Y135500
X330500Y133700
T02
X449686Y6720
X448031Y11811
X449686Y16902
X454016Y20049
X459369
X463700Y16902
X465354Y11811
X463700Y6720
X459369Y3574
X454016
X334400Y70400
Y77900
X334500Y85700
X18818Y16902
X20472Y11811
X18818Y6720
X14488Y3574
X9134
X4804Y6720
X3150Y11811
X4804Y16902
X9134Y20049
X14488
X5500Y145126
Y153000
X9134Y231920
X14488
X18818Y235066
X20472Y240157
X18818Y245249
X14488Y248395
X9134
X4804Y245249
X3150Y240158
X4804Y235066
X159000Y161000
X326772Y210630
Y216535
Y222441
X332677
X338583
X344488
Y216535
X338583
X332677
Y210630
X338583
X344488
X350394
Y216535
Y222441
X356299
Y216535
Y210630
X362205
Y216535
Y222441
Y228346
X356299
X350394
X344488
X338583
X332677
Y234252
X338583
X344488
X350394
X356299
Y240158
X350394
X344488
X338583
X332677
Y246063
X338583
X344488
X350394
X356299
X362205
Y240158
Y234252
X326772
Y240158
Y246063
Y228346
X449686Y235066
X448031Y240158
X449686Y245249
X454016Y248395
X459369
X463700Y245249
X465354Y240157
X463700Y235066
X459369Y231920
X454016
T03
X306000Y200000
Y207000
Y215000
Y223000
X297000
T05
X334800Y22400
X344800
Y32400
X334800
Y42400
X344800
Y52400
X334800
X83500Y30000
Y20000
Y10000
X61500
Y20000
Y30000
X39500
Y20000
Y10000
T06
X313700Y19800
X365000Y46000
X375000
X384000
X393000
X402000
X412000
X423000
X233800Y52700
X209500Y44700
X199700Y67200
X159000Y52700
X149000
X139000
X129000
X158400Y11100
X119000Y52700
X74000Y92000
X54000
X33800Y91300
X25400Y127600
X48200Y158800
X10000Y192000
Y202000
Y211000
Y220000
X43600Y226800
X107400Y231700
X124100
X115100Y204300
X98000Y204200
X145000Y161000
Y150000
Y138000
X161700Y232900
X170600Y233100
X179200
X191300Y210400
X223100Y209200
Y219700
X280600Y220400
X280400Y230000
X280600Y209100
X354000Y155200
X370900Y160800
X386600Y161500
X418400Y172200
X418200Y183700
X418400Y195900
X439000Y177500
X438500Y236700
X438700Y245700
X427400Y245400
X336000Y131000
Y117000
T07
X16130Y97220
Y116906
Y139220
Y158906
T08
X286500Y32500
X296500
X306500
X316500
X319200Y55000
Y65000
Y75000
Y85000
Y95000
X296500Y101200
X286500
X276500Y32500
X266500
X248000Y37000
Y47000
Y57000
X249000Y11500
X239000
X229000
X219000
X209000
X199000
X189000
X169000Y32500
X159000
X149000
X139000
X129000
X144700Y93100
X154700
X119000Y32500
X86500Y48000
Y58000
X76500
Y48000
X66500
Y58000
X56500
Y48000
X25500Y46000
Y56000
Y66000
Y76000
X144700Y103100
Y113100
X154700
Y103100
X233700Y209600
Y219600
Y229600
X243700
Y219600
Y209600
X260000
Y219600
Y229600
X270000
Y219600
Y209600
X319200Y175000
Y165000
Y155000
Y145000
Y135000
Y125000
Y115000
Y105000
X296500Y111200
X286500
X372000Y148500
X382000
X392000
X402000
X412000
X422000
T09
X347500Y117000
X357500
X367500
X377500
X387500
X397500
X407500
X417500
X377500Y131000
X367500
X357500
X347500
T10
X234000Y111472
T12
X234000Y141000
T13
X39500Y193000
Y213000
T14
X353012Y71843
X411988
T15
X456693Y11811
X11811
Y240158
X456693
M30
