G04*
G04 #@! TF.GenerationSoftware,Altium Limited,Altium Designer,18.1.2 (67)*
G04*
G04 Layer_Color=32896*
%FSLAX25Y25*%
%MOIN*%
G70*
G01*
G75*
%ADD16C,0.01000*%
G36*
X253507Y177321D02*
X253312Y176856D01*
X252334Y177384D01*
Y174407D01*
X253382D01*
Y173900D01*
X250821D01*
Y174407D01*
X251730D01*
Y178001D01*
X252216D01*
X253507Y177321D01*
D02*
G37*
G36*
X264000Y173900D02*
X262952D01*
X262820Y173907D01*
X262695Y173914D01*
X262584Y173928D01*
X262487Y173942D01*
X262411Y173956D01*
X262348Y173962D01*
X262314Y173976D01*
X262300D01*
X262189Y174011D01*
X262091Y174046D01*
X262008Y174087D01*
X261932Y174129D01*
X261876Y174157D01*
X261828Y174185D01*
X261800Y174205D01*
X261793Y174212D01*
X261717Y174275D01*
X261654Y174337D01*
X261599Y174407D01*
X261557Y174462D01*
X261522Y174518D01*
X261495Y174559D01*
X261481Y174587D01*
X261474Y174594D01*
X261432Y174684D01*
X261404Y174774D01*
X261384Y174865D01*
X261370Y174941D01*
X261363Y175017D01*
X261356Y175073D01*
Y175108D01*
Y175121D01*
X261370Y175260D01*
X261377Y175323D01*
X261391Y175378D01*
X261404Y175420D01*
X261411Y175455D01*
X261425Y175475D01*
Y175482D01*
X261481Y175600D01*
X261508Y175649D01*
X261536Y175690D01*
X261557Y175718D01*
X261578Y175746D01*
X261592Y175760D01*
X261599Y175767D01*
X261682Y175850D01*
X261765Y175906D01*
X261800Y175933D01*
X261828Y175947D01*
X261849Y175961D01*
X261856D01*
X261967Y176010D01*
X262064Y176044D01*
X262105Y176051D01*
X262140Y176058D01*
X262161Y176065D01*
X262168D01*
X262043Y176114D01*
X261939Y176169D01*
X261849Y176232D01*
X261779Y176287D01*
X261731Y176336D01*
X261689Y176378D01*
X261668Y176412D01*
X261661Y176419D01*
X261606Y176509D01*
X261571Y176607D01*
X261543Y176704D01*
X261522Y176794D01*
X261508Y176870D01*
X261502Y176933D01*
Y176974D01*
Y176981D01*
Y176988D01*
X261508Y177078D01*
X261515Y177162D01*
X261557Y177314D01*
X261627Y177446D01*
X261710Y177564D01*
X261814Y177662D01*
X261925Y177738D01*
X262050Y177807D01*
X262175Y177856D01*
X262300Y177897D01*
X262425Y177925D01*
X262536Y177953D01*
X262640Y177967D01*
X262723Y177974D01*
X262792Y177981D01*
X264000D01*
Y173900D01*
D02*
G37*
G36*
X260946D02*
X260370D01*
X260086Y174788D01*
X258379D01*
X258094Y173900D01*
X257490D01*
X258830Y177981D01*
X259593D01*
X260946Y173900D01*
D02*
G37*
G36*
X257185Y177509D02*
X255977D01*
Y173900D01*
X255415D01*
Y177509D01*
X254208D01*
Y177981D01*
X257185D01*
Y177509D01*
D02*
G37*
%LPC*%
G36*
X263445D02*
X262792D01*
X262716Y177502D01*
X262647Y177495D01*
X262591Y177488D01*
X262543Y177474D01*
X262508Y177467D01*
X262487Y177460D01*
X262480D01*
X262425Y177439D01*
X262376Y177419D01*
X262328Y177398D01*
X262293Y177377D01*
X262265Y177356D01*
X262244Y177342D01*
X262237Y177335D01*
X262230Y177328D01*
X262168Y177266D01*
X262126Y177203D01*
X262112Y177183D01*
X262105Y177162D01*
X262098Y177148D01*
Y177141D01*
X262071Y177058D01*
X262064Y176988D01*
X262057Y176954D01*
Y176933D01*
Y176919D01*
Y176912D01*
X262064Y176794D01*
X262078Y176739D01*
X262085Y176697D01*
X262098Y176655D01*
X262112Y176627D01*
X262119Y176613D01*
Y176607D01*
X262175Y176523D01*
X262230Y176454D01*
X262272Y176412D01*
X262286Y176405D01*
X262293Y176398D01*
X262383Y176343D01*
X262466Y176308D01*
X262501Y176294D01*
X262529Y176280D01*
X262549Y176274D01*
X262557D01*
X262674Y176253D01*
X262730Y176246D01*
X262786D01*
X262827Y176239D01*
X263445D01*
Y177509D01*
D02*
G37*
G36*
Y175774D02*
X262799D01*
X262723Y175767D01*
X262654Y175760D01*
X262591Y175753D01*
X262543Y175739D01*
X262508Y175732D01*
X262480Y175725D01*
X262473D01*
X262348Y175684D01*
X262300Y175663D01*
X262251Y175635D01*
X262216Y175621D01*
X262189Y175600D01*
X262175Y175593D01*
X262168Y175586D01*
X262085Y175517D01*
X262029Y175455D01*
X262008Y175420D01*
X261994Y175399D01*
X261981Y175385D01*
Y175378D01*
X261939Y175281D01*
X261918Y175191D01*
X261911Y175156D01*
Y175128D01*
Y175108D01*
Y175101D01*
X261918Y174969D01*
X261946Y174858D01*
X261987Y174761D01*
X262029Y174684D01*
X262071Y174622D01*
X262112Y174580D01*
X262140Y174552D01*
X262147Y174545D01*
X262244Y174490D01*
X262355Y174448D01*
X262473Y174414D01*
X262591Y174393D01*
X262695Y174379D01*
X262744D01*
X262786Y174372D01*
X263445D01*
Y175774D01*
D02*
G37*
G36*
X259232Y177467D02*
X258538Y175288D01*
X259926D01*
X259232Y177467D01*
D02*
G37*
%LPD*%
D16*
X208414Y156646D02*
G03*
X205000Y153231I0J-3414D01*
G01*
Y149646D02*
G03*
X205707Y147939I2414J0D01*
G01*
X262293D02*
G03*
X263000Y149646I-1707J1707D01*
G01*
Y153231D02*
G03*
X259586Y156646I-3414J0D01*
G01*
X210378Y143362D02*
G03*
X257622Y143362I23622J-17717D01*
G01*
X222000Y156646D02*
X227000Y158646D01*
X208414Y156646D02*
X222000D01*
X205000Y149646D02*
Y153231D01*
X205707Y147938D02*
X209000Y144646D01*
X210000Y143646D01*
X258000D02*
X259000Y144646D01*
X262293Y147938D01*
X263000Y149646D02*
Y153231D01*
X246000Y156646D02*
X259586D01*
X241000Y158646D02*
X246000Y156646D01*
X244000Y161646D02*
Y165646D01*
X242000Y163646D02*
X246000D01*
M02*
