G04*
G04 #@! TF.GenerationSoftware,Altium Limited,Altium Designer,18.1.2 (67)*
G04*
G04 Layer_Color=16711935*
%FSLAX25Y25*%
%MOIN*%
G70*
G01*
G75*
%ADD13C,0.00394*%
D13*
X468504Y240158D02*
G03*
X456693Y251969I-11811J0D01*
G01*
Y0D02*
G03*
X468504Y11811I0J11811D01*
G01*
X0D02*
G03*
X11811Y0I11811J0D01*
G01*
X11633Y251969D02*
G03*
X-178Y240158I0J-11811D01*
G01*
X11500Y251969D02*
X456693D01*
X-159Y172685D02*
Y240158D01*
Y125441D02*
Y137961D01*
X7321Y156622D02*
Y160165D01*
X-159Y156622D02*
X7321D01*
X-159Y160165D02*
X7321D01*
X-159Y149063D02*
Y156622D01*
Y160165D02*
Y172685D01*
X7321Y137961D02*
Y141504D01*
X-159D02*
X7321D01*
X-159D02*
Y149063D01*
Y137961D02*
X7321D01*
X-159Y83441D02*
Y95961D01*
X7321Y114622D02*
Y118165D01*
X-159Y114622D02*
X7321D01*
X-159Y118165D02*
X7321D01*
X-159Y107063D02*
Y114622D01*
Y118165D02*
Y130685D01*
X7321Y95961D02*
Y99504D01*
X-159D02*
X7321D01*
X-159D02*
Y107063D01*
Y95961D02*
X7321D01*
X-159Y86614D02*
X0Y11811D01*
X468504Y11811D02*
Y240158D01*
X11811Y0D02*
X456693D01*
M02*
